<?xml version="1.0" encoding="utf-8"?>
<svg viewBox="0 -0.005 138.421 201.931" xmlns="http://www.w3.org/2000/svg">
  <defs>
    <style>.cls-1{fill:#fff}.cls-2{fill:#2f3a3e}.cls-3{fill:#3ab14a}</style>
  </defs>
  <path class="cls-1" d="M 128.79 32.3 L 78.85 2.65 C 72.914 -0.89 65.516 -0.89 59.58 2.65 L 9.63 32.3 C 3.622 35.925 -0.036 42.443 0 49.46 L 0 108.75 C -0.033 115.763 3.625 122.277 9.63 125.9 L 59.57 155.54 C 65.506 159.078 72.904 159.078 78.84 155.54 L 128.78 125.9 C 134.792 122.278 138.454 115.759 138.42 108.74 L 138.42 49.46 C 138.456 42.443 134.798 35.925 128.79 32.3 Z"/>
  <path class="cls-2" d="M 128.79 32.3 L 78.85 2.65 C 72.914 -0.89 65.516 -0.89 59.58 2.65 L 9.63 32.3 C 3.622 35.925 -0.036 42.443 0 49.46 L 0 108.75 C -0.033 115.763 3.625 122.277 9.63 125.9 L 59.57 155.54 C 65.506 159.078 72.904 159.078 78.84 155.54 L 128.78 125.9 C 134.792 122.278 138.454 115.759 138.42 108.74 L 138.42 49.46 C 138.456 42.443 134.798 35.925 128.79 32.3 Z M 61.32 152.51 L 11.38 122.87 C 6.445 119.879 3.439 114.52 3.46 108.75 L 3.46 49.46 C 3.437 43.689 6.443 38.329 11.38 35.34 L 61.32 5.69 C 66.18 2.79 72.24 2.79 77.1 5.69 L 127 35.34 C 131.114 37.832 133.92 42.01 134.67 46.76 C 133.01 43.23 129.28 42.26 124.93 44.76 L 77.72 74 C 71.83 77.43 67.49 81.3 67.48 88.4 L 67.48 146.62 C 67.48 150.87 69.19 153.62 71.83 154.43 C 70.965 154.588 70.089 154.672 69.21 154.68 C 66.433 154.678 63.708 153.928 61.32 152.51 Z"/>
  <path class="cls-3" d="M 115.7 114.48 L 103.26 121.92 C 102.927 122.054 102.704 122.371 102.69 122.73 L 102.69 126 C 102.69 126.4 102.96 126.56 103.29 126.37 L 115.92 118.69 C 116.229 118.458 116.377 118.069 116.3 117.69 L 116.3 114.82 C 116.29 114.45 116 114.29 115.7 114.48 Z"/>
  <path class="cls-1" d="M 89.22 87.09 C 89.62 86.89 89.95 87.09 89.96 87.66 L 90 92 C 91.496 91.32 93.165 91.118 94.78 91.42 C 95.09 91.5 95.22 91.92 95.1 92.42 L 94.15 96.23 C 94.078 96.518 93.929 96.78 93.72 96.99 C 93.646 97.063 93.562 97.123 93.47 97.17 C 93.357 97.231 93.227 97.252 93.1 97.23 C 91.525 96.881 89.877 97.146 88.49 97.97 C 86.463 98.883 85.137 100.877 85.08 103.1 C 85.08 105.1 86.08 105.65 89.57 105.71 C 94.18 105.79 96.18 107.8 96.23 112.45 C 96.12 117.304 93.882 121.864 90.11 124.92 L 90.19 129.18 C 90.183 129.709 89.908 130.199 89.46 130.48 L 86.94 131.93 C 86.54 132.13 86.21 131.93 86.2 131.37 L 86.2 127.18 C 84.04 128.08 81.85 128.29 80.45 127.73 C 80.19 127.63 80.07 127.24 80.18 126.79 L 81.09 122.94 C 81.159 122.635 81.316 122.357 81.54 122.14 C 81.611 122.072 81.692 122.015 81.78 121.97 C 81.91 121.911 82.06 121.911 82.19 121.97 C 83.973 122.453 85.874 122.213 87.48 121.3 C 89.797 120.182 91.303 117.871 91.39 115.3 C 91.39 113.14 90.2 112.24 87.39 112.22 C 83.76 112.22 80.39 111.52 80.32 106.22 C 80.404 101.59 82.553 97.239 86.18 94.36 L 86 90 C 85.998 89.463 86.275 88.964 86.73 88.68 L 89.22 87.09 Z"/>
  <path class="cls-2" d="M 30.757 182.022 C 29.991 181.101 29.08 180.309 28.06 179.681 L 27.672 179.451 C 28.487 178.91 29.223 178.258 29.862 177.516 C 31.275 175.87 32.056 173.775 32.064 171.605 C 32.129 169.736 31.688 167.884 30.787 166.245 C 29.936 164.768 28.754 163.508 27.333 162.567 C 25.876 161.61 24.266 160.913 22.572 160.504 C 20.836 160.075 19.056 159.849 17.267 159.833 L 5.168 159.833 C 4.345 159.812 3.66 160.462 3.637 161.284 L 3.637 199.953 C 3.66 200.776 4.345 201.426 5.168 201.406 L 18.198 201.406 C 20.06 201.388 21.91 201.104 23.691 200.565 C 25.414 200.055 27.035 199.251 28.483 198.186 C 29.894 197.139 31.056 195.792 31.888 194.243 C 32.765 192.565 33.199 190.691 33.147 188.798 C 33.163 187.542 32.959 186.293 32.542 185.108 C 32.127 183.985 31.524 182.941 30.757 182.022 Z M 23.347 173.517 C 23.007 174.098 22.547 174.602 21.998 174.993 C 21.385 175.426 20.704 175.754 19.982 175.961 C 19.197 176.194 18.383 176.321 17.563 176.336 L 11.889 176.336 L 11.889 166.941 L 17.399 166.941 C 18.276 166.956 19.148 167.065 20.001 167.268 C 20.728 167.432 21.419 167.723 22.046 168.126 C 22.578 168.476 23.02 168.946 23.334 169.5 C 23.668 170.134 23.831 170.846 23.806 171.563 C 23.834 172.244 23.675 172.919 23.347 173.517 Z M 11.906 183.33 L 18.561 183.33 C 19.45 183.35 20.33 183.501 21.175 183.776 C 21.899 184.011 22.572 184.381 23.159 184.866 C 23.702 185.32 24.138 185.887 24.436 186.529 C 24.759 187.262 24.911 188.059 24.878 188.859 C 24.893 189.64 24.72 190.414 24.375 191.115 C 24.045 191.766 23.576 192.335 23.002 192.784 C 22.367 193.275 21.653 193.652 20.891 193.904 C 20.064 194.18 19.202 194.326 18.331 194.339 L 11.906 194.339 L 11.906 183.33 Z M 55.881 160.849 C 55.662 160.234 55.076 159.827 54.423 159.839 L 50.116 159.839 C 49.467 159.831 48.886 160.234 48.664 160.842 L 35.537 199.512 C 35.386 199.955 35.468 200.443 35.754 200.813 C 36.044 201.188 36.49 201.411 36.964 201.417 L 42.13 201.417 C 42.786 201.425 43.372 201.013 43.589 200.395 L 46.523 191.406 L 57.835 191.406 L 60.714 200.389 C 60.928 201.013 61.519 201.429 62.179 201.417 L 67.315 201.417 C 67.789 201.411 68.235 201.188 68.524 200.813 C 68.812 200.444 68.896 199.955 68.749 199.512 L 55.881 160.849 Z M 55.561 184.201 L 48.906 184.201 L 52.27 173.831 L 55.561 184.201 Z M 99.837 183.517 C 99.138 182.62 98.324 181.82 97.418 181.133 C 96.513 180.45 95.554 179.843 94.55 179.318 C 93.533 178.789 92.485 178.322 91.411 177.92 C 90.37 177.533 89.311 177.177 88.259 176.862 C 87.363 176.602 86.407 176.293 85.409 175.955 C 84.51 175.644 83.646 175.238 82.832 174.745 C 82.147 174.342 81.547 173.81 81.065 173.178 C 80.656 172.599 80.444 171.903 80.461 171.193 C 80.44 170.488 80.605 169.789 80.939 169.167 C 81.267 168.576 81.724 168.065 82.275 167.673 C 82.89 167.238 83.575 166.914 84.302 166.717 C 86.01 166.229 87.825 166.267 89.51 166.826 C 90.255 167.094 90.939 167.505 91.526 168.036 C 92.101 168.575 92.567 169.22 92.898 169.935 C 93.279 170.77 93.53 171.657 93.642 172.567 C 93.76 173.31 94.408 173.853 95.161 173.837 L 100.466 173.837 C 100.873 173.839 101.263 173.683 101.556 173.402 C 101.84 173.129 101.998 172.749 101.991 172.355 C 101.972 170.458 101.504 168.592 100.624 166.911 C 99.776 165.317 98.611 163.915 97.2 162.79 C 95.75 161.648 94.112 160.766 92.36 160.184 C 88.843 159.013 85.049 158.961 81.501 160.032 C 79.81 160.522 78.214 161.295 76.782 162.319 C 75.389 163.322 74.218 164.603 73.346 166.082 C 72.435 167.651 71.967 169.439 71.991 171.254 C 71.955 173.046 72.431 174.812 73.365 176.342 C 74.25 177.751 75.394 178.98 76.734 179.965 C 78.087 180.961 79.556 181.79 81.108 182.434 C 82.632 183.075 84.132 183.644 85.627 184.08 C 86.594 184.374 87.603 184.704 88.652 185.072 C 89.573 185.389 90.455 185.806 91.284 186.318 C 91.988 186.744 92.596 187.313 93.068 187.988 C 93.494 188.638 93.706 189.406 93.673 190.183 C 93.699 190.886 93.522 191.58 93.164 192.186 C 92.799 192.771 92.309 193.271 91.73 193.649 C 91.081 194.07 90.362 194.375 89.608 194.551 C 87.752 195.004 85.811 194.967 83.975 194.443 C 83.13 194.188 82.34 193.777 81.646 193.232 C 80.978 192.703 80.421 192.048 80.007 191.302 C 79.552 190.462 79.259 189.546 79.142 188.598 C 79.022 187.857 78.374 187.318 77.623 187.334 L 72.342 187.334 C 71.934 187.333 71.541 187.491 71.247 187.776 C 70.963 188.051 70.807 188.432 70.818 188.829 C 70.851 190.799 71.39 192.728 72.384 194.43 C 73.339 196.037 74.61 197.433 76.123 198.532 C 77.674 199.654 79.402 200.509 81.235 201.06 C 83.107 201.635 85.054 201.927 87.012 201.926 C 88.794 201.923 90.567 201.688 92.287 201.224 C 94.008 200.779 95.643 200.054 97.127 199.076 C 98.567 198.12 99.784 196.869 100.702 195.404 C 101.672 193.813 102.167 191.979 102.13 190.117 C 102.142 188.881 101.937 187.652 101.525 186.487 C 101.122 185.414 100.552 184.412 99.837 183.517 Z M 133.721 159.839 L 128.833 159.839 C 128.01 159.818 127.325 160.468 127.302 161.29 L 127.302 176.463 L 113.685 176.463 L 113.685 161.29 C 113.662 160.468 112.977 159.818 112.155 159.839 L 107.315 159.839 C 106.492 159.818 105.807 160.468 105.784 161.29 L 105.784 199.959 C 105.807 200.782 106.492 201.432 107.315 201.411 L 112.155 201.411 C 112.977 201.432 113.662 200.782 113.685 199.959 L 113.685 183.541 L 127.302 183.541 L 127.302 199.959 C 127.325 200.782 128.01 201.432 128.833 201.411 L 133.721 201.411 C 134.544 201.432 135.229 200.782 135.251 199.959 L 135.251 161.29 C 135.229 160.468 134.544 159.818 133.721 159.839 Z" style=""/>
</svg>