<?xml version="1.0" encoding="utf-8"?>
<svg viewBox="0 0.089 113.928 167.808" xmlns="http://www.w3.org/2000/svg">
  <path fill="#f05133" d="M111.78,51.977,62.035,2.2381c-2.8622-2.8648-7.5082-2.8648-10.374,0l-10.329,10.33,13.102,13.102c3.0459-1.0284,6.5371-0.33888,8.9639,2.0884,2.4394,2.4424,3.124,5.9634,2.0698,9.0195l12.628,12.628c3.0551-1.0528,6.58-0.37262,9.0195,2.0712,3.4106,3.4096,3.4106,8.9345,0,12.345-3.4111,3.4116-8.936,3.4116-12.349,0-2.5645-2.5665-3.1988-6.3345-1.8999-9.4942l-11.777-11.777-0.001,30.991c0.8315,0.41162,1.6162,0.961,2.3091,1.6509,3.4096,3.4092,3.4096,8.9331,0,12.348-3.4106,3.4091-8.938,3.4091-12.345,0-3.4101-3.4146-3.4101-8.9385,0-12.348,0.84275-0.84125,1.8179-1.478,2.8584-1.9048v-31.279c-1.041-0.425-2.015-1.057-2.859-1.905-2.583-2.581-3.2051-6.372-1.8804-9.5439l-12.916-12.918-34.106,34.105c-2.8657,2.867-2.8657,7.513,0,10.378l49.742,49.739c2.8638,2.8648,7.5082,2.8648,10.376,0l49.512-49.504c2.8648-2.8662,2.8648-7.5136,0-10.379"/>
  <path fill="#413000" d="M 38.947 135.06 C 36.207 135.06 34.165 136.406 34.165 139.646 C 34.165 142.086 35.51 143.782 38.8 143.782 C 41.588 143.782 43.482 142.138 43.482 139.545 C 43.482 136.606 41.787 135.06 38.947 135.06 Z M 33.465 157.935 C 32.816 158.73 32.17 159.576 32.17 160.574 C 32.17 162.567 34.709 163.166 38.198 163.166 C 41.088 163.166 45.025 162.963 45.025 160.276 C 45.025 158.68 43.131 158.581 40.738 158.43 L 33.465 157.935 Z M 48.214 135.21 C 49.109 136.357 50.058 137.951 50.058 140.245 C 50.058 145.775 45.723 149.014 39.446 149.014 C 37.849 149.014 36.404 148.815 35.508 148.566 L 33.863 151.207 L 38.745 151.504 C 47.366 152.054 52.448 152.304 52.448 158.928 C 52.448 164.66 47.416 167.897 38.745 167.897 C 29.727 167.897 26.289 165.605 26.289 161.668 C 26.289 159.426 27.285 158.233 29.03 156.585 C 27.386 155.89 26.837 154.645 26.837 153.299 C 26.837 152.202 27.386 151.206 28.284 150.259 C 29.18 149.314 30.176 148.364 31.373 147.269 C 28.931 146.074 27.087 143.482 27.087 139.794 C 27.087 134.064 30.873 130.13 38.496 130.13 C 40.639 130.13 41.936 130.328 43.082 130.629 L 52.799 130.629 L 52.799 134.862 L 48.214 135.211" style=""/>
  <path fill="#413000" d="M 61.57 126.155 C 58.729 126.155 57.085 124.511 57.085 121.669 C 57.085 118.831 58.729 117.286 61.57 117.286 C 64.46 117.286 66.105 118.831 66.105 121.669 C 66.105 124.511 64.46 126.155 61.57 126.155 Z M 55.141 156.1 L 55.141 152.166 L 57.683 151.818 C 58.381 151.716 58.48 151.569 58.48 150.819 L 58.48 136.17 C 58.48 135.623 58.331 135.273 57.83 135.124 L 55.141 134.177 L 55.688 130.143 L 66.004 130.143 L 66.004 150.82 C 66.004 151.619 66.052 151.716 66.801 151.818 L 69.343 152.166 L 69.343 156.1 L 55.141 156.1" style=""/>
  <path fill="#413000" d="M 89.047 154.168 C 86.903 155.214 83.765 156.161 80.923 156.161 C 74.994 156.161 72.753 153.771 72.753 148.139 L 72.753 135.085 C 72.753 134.787 72.753 134.586 72.352 134.586 L 68.864 134.586 L 68.864 130.152 C 73.251 129.653 74.994 127.459 75.542 122.028 L 80.276 122.028 L 80.276 129.106 C 80.276 129.454 80.276 129.605 80.674 129.605 L 87.7 129.605 L 87.7 134.586 L 80.276 134.586 L 80.276 146.494 C 80.276 149.435 80.974 150.579 83.664 150.579 C 85.062 150.579 86.505 150.232 87.7 149.784 L 89.047 154.17" style=""/>
</svg>