<?xml version="1.0" encoding="utf-8"?>
<svg viewBox="74.6 100.6 362.8 497.4" xmlns="http://www.w3.org/2000/svg">
  <path d="M 108.4 529 L 131.4 529 L 131.4 551.8 L 152.6 551.8 L 152.6 529 L 175.6 529 L 175.6 598 L 152.6 598 L 152.6 575 L 131.6 575 L 131.6 598 L 108.4 598 M 206 552 L 185.7 552 L 185.7 529 L 249.4 529 L 249.4 552 L 229 552 L 229 598 L 206 598 M 259.5 529 L 283.6 529 L 298.4 553.3 L 313.2 529 L 337.3 529 L 337.3 598 L 314.3 598 L 314.3 563.8 L 298.2 588.6 L 282.1 563.8 L 282.1 598 L 259.5 598 M 348.7 529 L 371.7 529 L 371.7 575.2 L 404.3 575.2 L 404.3 598 L 348.7 598"/>
  <path fill="#e44d26" d="M107.6 471l-33-370.4h362.8l-33 370.2L255.7 512"/>
  <path fill="#f16529" d="M256 480.5V131H404.3L376 447"/>
  <path fill="#ebebeb" d="M142 176.3h114v45.4h-64.2l4.2 46.5h60v45.3H154.4M156.4 336.3H202l3.2 36.3 50.8 13.6v47.4l-93.2-26"/>
  <path fill="#fff" d="M369.6 176.3H255.8v45.4h109.6M361.3 268.2H255.8v45.4h56l-5.3 59-50.7 13.6v47.2l93-25.8"/>
</svg>