<?xml version="1.0" encoding="utf-8"?>
<svg viewBox="-0.012 0.015 256.4 347.28" xmlns="http://www.w3.org/2000/svg">
  <defs>
    <style>.st0{fill:#d4b830}.st1,.st2{opacity:.986;fill:#ebebeb;fill-opacity:0;enable-background:new}.st2{fill-opacity:.9216}.st3{fill:#fdd83c}</style>
  </defs>
  <g id="g5193" transform="matrix(1, 0, 0, 1, 4.988, -113.385004)">
    <rect x="131.031" y="165.42" width="96.309" height="182.732" style="fill: rgb(255, 255, 255); paint-order: fill; stroke: rgb(255, 255, 255);"/>
    <path id="path5113" class="st0" d="M18.8 375.4L-5 113.4l256.4.1-23.6 261.7L123 404.8 18.8 375.4zm189.7-14.3l19.9-224.4h-105l.8 247.5 84.3-23.1zm-94.9-191.5H88.1l-.3 134.3-49.5-13.5.1 30.7 75.2 20.3V169.6z" style="fill: rgb(212, 185, 48);"/>
    <path id="path5159" class="st1" d="M105.2 338.9c-3.3-1-19.6-5.4-36.2-9.9l-30.1-8.1v-15.1c0-14.8 0-15.1 1.5-14.6.8.3 11.8 3.3 24.4 6.8l22.9 6.3.2-67 .2-67h25v85.2c0 67.7-.2 85.2-.9 85.2-.5-.1-3.7-.9-7-1.8z" style="fill-opacity: 1;"/>
    <path id="path5157" class="st2" d="M38.4 321.1l-.1-30.7s31.6 8.9 49.5 13.5l.3-134.2h25.5v171.7l-75.2-20.3z" style="fill-opacity: 1;"/>
    <path id="path5117" class="st3" d="M123.4 136.6h105L208.5 361l-85.1 23.1V136.6zm79.7 186.8l6.9-83.9-51 5.7v-44.8l54.4-.2 2.2-30.6-82.1.4 1.1 111.4 49.6-8.5-.7 24.8-50 13.3.5 30.4 69.1-18z"/>
  </g>
  <path id="path76" d="M 84.068 339.533 L 84.068 331.772 L 95.097 331.772 L 106.126 331.772 L 106.126 316.658 L 106.126 301.544 L 113.887 301.544 L 121.648 301.544 L 121.648 324.42 L 121.648 347.295 L 102.858 347.295 L 84.068 347.295 L 84.068 339.533 Z M 129.001 341.168 L 129.001 335.04 L 139.214 335.04 C 144.831 335.04 149.426 334.833 149.426 334.579 C 149.426 334.324 144.831 329.137 139.214 323.05 L 129.001 311.981 L 129.001 306.762 L 129.001 301.544 L 150.243 301.544 L 171.484 301.544 L 171.484 307.647 L 171.484 313.748 L 161.513 313.978 L 151.541 314.207 L 161.922 325.387 L 172.302 336.565 L 172.302 341.93 L 172.302 347.295 L 150.652 347.295 L 129.001 347.295 L 129.001 341.168 Z" style="fill: rgb(14, 14, 15); stroke-width: 1.33333;"/>
</svg>