<?xml version="1.0" encoding="utf-8"?>
<svg viewBox="0 0 49.654 60.953" xmlns="http://www.w3.org/2000/svg">
  <path d="M49.626 11.564a.809.809 0 0 1 .028.209v10.972a.8.8 0 0 1-.402.694l-9.209 5.302V39.25c0 .286-.152.55-.4.694L20.42 51.01c-.044.025-.092.041-.14.058-.018.006-.035.017-.054.022a.805.805 0 0 1-.41 0c-.022-.006-.042-.018-.063-.026-.044-.016-.09-.03-.132-.054L.402 39.944A.801.801 0 0 1 0 39.25V6.334c0-.072.01-.142.028-.21.006-.023.02-.044.028-.067.015-.042.029-.085.051-.124.015-.026.037-.047.055-.071.023-.032.044-.065.071-.093.023-.023.053-.04.079-.06.029-.024.055-.05.088-.069h.001l9.61-5.533a.802.802 0 0 1 .8 0l9.61 5.533h.002c.032.02.059.045.088.068.026.02.055.038.078.06.028.029.048.062.072.094.017.024.04.045.054.071.023.04.036.082.052.124.008.023.022.044.028.068a.809.809 0 0 1 .028.209v20.559l8.008-4.611v-10.51c0-.07.01-.141.028-.208.007-.024.02-.045.028-.068.016-.042.03-.085.052-.124.015-.026.037-.047.054-.071.024-.032.044-.065.072-.093.023-.023.052-.04.078-.06.03-.024.056-.05.088-.069h.001l9.611-5.533a.801.801 0 0 1 .8 0l9.61 5.533c.034.02.06.045.09.068.025.02.054.038.077.06.028.029.048.062.072.094.018.024.04.045.054.071.023.039.036.082.052.124.009.023.022.044.028.068zm-1.574 10.718v-9.124l-3.363 1.936-4.646 2.675v9.124l8.01-4.611zm-9.61 16.505v-9.13l-4.57 2.61-13.05 7.448v9.216l17.62-10.144zM1.602 7.719v31.068L19.22 48.93v-9.214l-9.204-5.209-.003-.002-.004-.002c-.031-.018-.057-.044-.086-.066-.025-.02-.054-.036-.076-.058l-.002-.003c-.026-.025-.044-.056-.066-.084-.02-.027-.044-.05-.06-.078l-.001-.003c-.018-.03-.029-.066-.042-.1-.013-.03-.03-.058-.038-.09v-.001c-.01-.038-.012-.078-.016-.117-.004-.03-.012-.06-.012-.09v-.002-21.481L4.965 9.654 1.602 7.72zm8.81-5.994L2.405 6.334l8.005 4.609 8.006-4.61-8.006-4.608zm4.164 28.764l4.645-2.674V7.719l-3.363 1.936-4.646 2.675v20.096l3.364-1.937zM39.243 7.164l-8.006 4.609 8.006 4.609 8.005-4.61-8.005-4.608zm-.801 10.605l-4.646-2.675-3.363-1.936v9.124l4.645 2.674 3.364 1.937v-9.124zM20.02 38.33l11.743-6.704 5.87-3.35-8-4.606-9.211 5.303-8.395 4.833 7.993 4.524z" fill-rule="evenodd" fill="#FF2D20"/>
  <path fill="#ff2d20" d="M 2.439 49.151 L 2.439 59.05 L 6.021 59.05 L 6.021 60.755 L 0.533 60.755 L 0.533 49.151 L 2.439 49.151 Z M 12.748 54.074 L 12.748 53.028 L 14.56 53.028 L 14.56 60.761 L 12.758 60.761 L 12.758 59.712 C 12.508 60.098 12.163 60.399 11.719 60.614 C 11.269 60.84 10.816 60.951 10.364 60.951 C 9.776 60.951 9.238 60.84 8.755 60.627 C 8.279 60.423 7.853 60.121 7.5 59.742 C 7.149 59.367 6.874 58.931 6.684 58.453 C 6.487 57.955 6.391 57.426 6.397 56.891 C 6.397 56.348 6.495 55.83 6.687 55.343 C 6.875 54.862 7.154 54.419 7.504 54.038 C 7.854 53.658 8.276 53.354 8.749 53.144 C 9.238 52.93 9.779 52.823 10.361 52.823 C 10.81 52.823 11.26 52.933 11.71 53.153 C 12.155 53.378 12.499 53.677 12.741 54.065 L 12.748 54.074 Z M 12.585 57.839 C 12.698 57.535 12.758 57.217 12.758 56.894 C 12.758 56.56 12.697 56.251 12.585 55.949 C 12.482 55.661 12.323 55.393 12.12 55.162 C 11.917 54.941 11.672 54.764 11.4 54.64 C 11.104 54.506 10.786 54.435 10.462 54.437 C 10.119 54.437 9.811 54.51 9.534 54.643 C 9.267 54.769 9.023 54.947 8.821 55.162 C 8.619 55.392 8.464 55.66 8.367 55.949 C 8.261 56.252 8.208 56.572 8.208 56.894 C 8.208 57.223 8.26 57.539 8.367 57.839 C 8.47 58.141 8.625 58.398 8.821 58.612 C 9.022 58.837 9.264 59.02 9.534 59.148 C 9.811 59.28 10.119 59.346 10.462 59.346 C 10.807 59.346 11.121 59.282 11.4 59.148 C 11.672 59.021 11.919 58.841 12.12 58.616 C 12.322 58.39 12.481 58.127 12.585 57.843 L 12.585 57.839 Z M 15.987 60.761 L 15.987 53.028 L 20.891 53.028 L 20.891 54.808 L 17.79 54.808 L 17.79 60.755 L 15.987 60.755 L 15.987 60.761 Z M 27.441 54.074 L 27.441 53.028 L 29.247 53.028 L 29.247 60.761 L 27.441 60.761 L 27.441 59.712 C 27.2 60.098 26.853 60.399 26.411 60.614 C 25.96 60.84 25.508 60.951 25.053 60.951 C 24.464 60.951 23.927 60.84 23.443 60.627 C 22.968 60.423 22.542 60.121 22.19 59.742 C 21.838 59.367 21.562 58.931 21.372 58.453 C 21.181 57.955 21.082 57.426 21.088 56.891 C 21.088 56.348 21.183 55.83 21.377 55.343 C 21.564 54.862 21.84 54.419 22.193 54.038 C 22.543 53.658 22.966 53.354 23.438 53.144 C 23.927 52.93 24.468 52.823 25.048 52.823 C 25.499 52.823 25.95 52.933 26.398 53.153 C 26.844 53.378 27.192 53.677 27.428 54.065 L 27.441 54.074 Z M 27.279 57.839 C 27.387 57.535 27.443 57.217 27.441 56.894 C 27.441 56.56 27.386 56.251 27.279 55.949 C 27.176 55.661 27.02 55.393 26.818 55.162 C 26.611 54.94 26.364 54.764 26.088 54.64 C 25.809 54.51 25.496 54.437 25.156 54.437 C 24.813 54.437 24.505 54.51 24.224 54.643 C 23.957 54.769 23.712 54.947 23.51 55.162 C 23.309 55.392 23.154 55.66 23.056 55.949 C 22.95 56.255 22.899 56.574 22.9 56.894 C 22.9 57.223 22.953 57.539 23.056 57.839 C 23.162 58.141 23.313 58.398 23.51 58.612 C 23.711 58.837 23.953 59.02 24.224 59.148 C 24.505 59.28 24.813 59.346 25.156 59.346 C 25.499 59.346 25.809 59.282 26.093 59.148 C 26.369 59.025 26.62 58.841 26.822 58.616 C 27.023 58.39 27.179 58.127 27.282 57.843 L 27.279 57.839 Z M 36.496 53.028 L 38.33 53.028 L 35.367 60.761 L 33.09 60.761 L 30.125 53.028 L 31.951 53.028 L 34.228 58.946 L 36.496 53.034 L 36.496 53.028 Z M 42.268 52.832 C 44.729 52.832 46.408 55.013 46.091 57.565 L 40.09 57.565 C 40.09 58.226 40.769 59.515 42.366 59.515 C 43.742 59.515 44.665 58.313 44.665 58.313 L 45.885 59.256 C 44.791 60.418 43.896 60.953 42.49 60.953 C 39.993 60.953 38.299 59.363 38.299 56.885 C 38.299 54.64 40.051 52.823 42.264 52.823 L 42.268 52.832 Z M 40.1 56.224 L 44.436 56.224 C 44.42 56.074 44.179 54.266 42.255 54.266 C 40.322 54.266 40.116 56.078 40.1 56.224 Z M 47.271 60.745 L 47.271 49.151 L 49.075 49.151 L 49.075 60.755 L 47.271 60.755 L 47.271 60.745 Z" style=""/>
</svg>