<?xml version="1.0" encoding="utf-8"?>
<svg viewBox="0 -0.002 1866.1 2130.602" xmlns="http://www.w3.org/2000/svg">
  <defs>
    <style type="text/css">
	.st0{fill:#656565;}
	.st1{fill:url(#SVGID_1_);}
	.st2{fill:url(#SVGID_2_);}
	.st3{opacity:0.444;fill:url(#SVGID_3_);enable-background:new    ;}
</style>
  </defs>
  <linearGradient id="SVGID_1_" gradientUnits="userSpaceOnUse" x1="12914.6377" y1="-27007.6797" x2="12991.0264" y2="-27073.4023" gradientTransform="matrix(9.2563 0 0 -9.3468 -119299.5781 -252400.0313)">
    <stop offset="0" style="stop-color:#5CA0D5"/>
    <stop offset="1" style="stop-color:#316A99"/>
  </linearGradient>
  <linearGradient id="SVGID_2_" gradientUnits="userSpaceOnUse" x1="13020.6973" y1="-27113.1328" x2="12993.4189" y2="-27074.5391" gradientTransform="matrix(9.2563 0 0 -9.3468 -119299.5781 -252400.0313)">
    <stop offset="0" style="stop-color:#FFD43E"/>
    <stop offset="1" style="stop-color:#FFE975"/>
  </linearGradient>
  <radialGradient id="SVGID_3_" cx="-83039.6641" cy="-13866.3984" r="20.3396" gradientTransform="matrix(0 -3.9477 -17.3558 0 -239744.5313 -326357.7188)" gradientUnits="userSpaceOnUse">
    <stop offset="0" style="stop-color:#B8B8B8;stop-opacity:0.498"/>
    <stop offset="1" style="stop-color:#7F8080;stop-opacity:0"/>
  </radialGradient>
  <path class="st0" d="M 227.1 1793.2 C 227.1 1701 200.8 1655 148.1 1653.3 C 126.7 1651.7 107 1656.6 87.2 1663.2 C 70.7 1668.1 60.9 1674.7 55.9 1679.7 L 55.9 1896.9 C 88.8 1918.3 118.4 1928.2 144.8 1926.5 C 199.1 1921.5 227.1 1877.1 227.1 1793.2 Z M 291.3 1796.5 C 291.3 1842.6 281.4 1880.4 258.4 1911.7 C 233.7 1946.3 200.8 1964.4 156.4 1964.4 C 123.5 1966 90.6 1954.5 56 1933.1 L 56 2130.6 L 0 2110.8 L 0 1671.4 C 9.9 1659.9 21.4 1650 34.6 1641.8 C 67.5 1622.1 108.7 1612.2 154.7 1612.2 C 197.5 1612.2 232 1630.3 255.1 1664.9 C 279.7 1702.7 291.3 1743.8 291.3 1796.5 Z M 631.9 1926.5 C 631.9 1989 625.3 2031.8 613.8 2054.9 C 600.6 2077.9 577.6 2097.7 543 2112.5 C 513.4 2124 483.8 2130.6 450.8 2130.6 L 440.9 2096 C 475.5 2091.1 498.5 2086.1 511.7 2082.8 C 538 2072.9 557.8 2059.8 567.6 2040 C 575.8 2025.2 579.1 1995.6 579.1 1952.8 L 579.1 1938 C 541.3 1956.1 500.1 1964.3 459 1964.3 C 431 1964.3 406.3 1956.1 386.6 1938 C 363.6 1919.9 352 1895.2 352 1865.6 L 352 1633.6 L 407.9 1613.9 L 407.9 1847.6 C 407.9 1872.3 416.1 1892 432.6 1905.2 C 449.1 1918.4 468.8 1924.9 495.1 1924.9 C 521.4 1924.9 547.8 1915 577.4 1895.3 L 577.4 1622 L 633.3 1622 L 631.9 1926.5 Z M 849.1 1962.7 L 831 1962.7 C 799.7 1962.7 775.1 1954.5 756.9 1939.7 C 738.8 1924.9 730.6 1903.5 730.6 1877.2 L 730.6 1656.7 L 692.8 1656.7 L 692.8 1622 L 730.6 1622 L 730.6 1528.2 L 786.5 1508.5 L 786.5 1622 L 849 1622 L 849 1656.6 L 786.5 1656.6 L 786.5 1873.8 C 786.5 1895.2 791.4 1910 803 1918.2 C 812.9 1924.8 827.7 1929.7 849.1 1931.4 L 849.1 1962.7 Z M 1188.1 1957.7 L 1132.2 1957.7 L 1132.2 1742.1 C 1132.2 1720.7 1127.3 1701 1117.4 1686.2 C 1105.9 1668.1 1089.4 1659.9 1068 1659.9 C 1041.7 1659.9 1010.4 1673.1 972.6 1701 L 972.6 1959.4 L 916.7 1959.4 L 916.7 1444.3 L 972.6 1426.2 L 972.6 1659.9 C 1008.8 1633.6 1046.7 1620.4 1089.4 1620.4 C 1119 1620.4 1142.1 1630.3 1161.8 1650 C 1179.9 1669.7 1189.8 1694.4 1189.8 1724.1 L 1188.1 1957.7 Z M 1484.3 1783.3 C 1484.3 1748.7 1477.7 1719.1 1464.6 1696.1 C 1448.1 1668.1 1425.1 1653.3 1390.5 1651.7 C 1329.6 1655 1298.3 1699.4 1298.3 1783.3 C 1298.3 1822.8 1304.9 1854.1 1318 1880.4 C 1334.5 1913.3 1359.1 1929.8 1392.1 1929.8 C 1453 1928.1 1484.3 1880.4 1484.3 1783.3 Z M 1545.2 1783.3 C 1545.2 1832.7 1532 1875.5 1507.4 1908.4 C 1479.4 1944.6 1439.9 1964.3 1392.2 1964.3 C 1342.8 1964.3 1305 1946.2 1277 1908.4 C 1252.3 1875.5 1239.2 1834.3 1239.2 1783.3 C 1239.2 1735.6 1252.4 1696.1 1280.3 1664.8 C 1309.9 1630.2 1346.1 1613.8 1392.2 1613.8 C 1438.3 1613.8 1476.1 1630.3 1505.7 1664.8 C 1532 1697.7 1545.2 1737.2 1545.2 1783.3 Z M 1866.1 1957.7 L 1810.2 1957.7 L 1810.2 1730.6 C 1810.2 1705.9 1802 1686.2 1787.2 1673 C 1772.4 1659.8 1752.6 1651.6 1726.3 1653.3 C 1700 1653.3 1673.6 1663.2 1650.6 1679.6 L 1650.6 1961 L 1594.7 1961 L 1594.7 1673 C 1626 1650 1655.6 1633.5 1683.6 1626.9 C 1709.9 1620.3 1731.3 1617 1751.1 1617 C 1764.3 1617 1777.4 1618.6 1788.9 1620.3 C 1810.3 1625.2 1828.4 1635.1 1841.6 1648.3 C 1856.4 1663.1 1864.6 1682.9 1864.6 1704.2 L 1866.1 1957.7 Z"/>
  <path class="st1" d="M908.4,0.3c-52.7,0-103.7,4.9-148.1,13.2c-131.6,23-154.7,70.8-154.7,161.3v118.5h309.4v39.5H490.4 c-88.9,0-167.8,54.3-192.5,156.3c-28,118.5-29.6,190.9,0,314.3c21.4,92.2,74.1,156.3,164.6,156.3h107V818.2 c0-102,88.9-192.5,192.5-192.5h307.7c85.6,0,154.7-70.8,154.7-158V173.1c0-83.9-70.8-146.5-154.7-161.3 C1015.3,3.6,961-1.3,908.4,0.3z M740.5,94.1c31.3,0,57.6,26.3,57.6,59.2s-26.3,59.2-57.6,59.2c-31.3,0-57.6-26.3-57.6-59.2 S707.6,94.1,740.5,94.1z"/>
  <path class="st2" d="M1262.2,329.4V466c0,107-90.5,195.8-194.2,195.8H760.3c-83.9,0-154.7,72.4-154.7,158v294.6 c0,83.9,72.4,133.3,154.7,158c97.1,29.6,190.9,34.6,309.4,0c77.3-23,154.7-67.5,154.7-158V995.9H914.9v-39.5H1379 c88.9,0,123.4-62.5,154.7-156.3c32.9-97.1,31.3-189.2,0-314.3c-21.4-88.9-64.2-156.3-154.7-156.3L1262.2,329.4z M1087.7,1074.9 c31.3,0,57.6,26.3,57.6,59.2s-26.3,59.2-57.6,59.2c-31.3,0-57.6-26.3-57.6-59.2S1056.5,1074.9,1087.7,1074.9z"/>
  <path class="st3" d="M1332.9,1471.5c0,44.4-185.9,80.6-414.7,80.6s-414.7-36.2-414.7-80.6c0-44.4,185.9-80.6,414.7-80.6 S1332.9,1427,1332.9,1471.5L1332.9,1471.5z"/>
</svg>