<?xml version="1.0" encoding="utf-8"?>
<svg viewBox="0 0 7410 3900" xmlns="http://www.w3.org/2000/svg">
  <rect width="7410" height="3900" fill="#b22234"/>
  <path d="M0,450H7410m0,600H0m0,600H7410m0,600H0m0,600H7410m0,600H0" stroke="#fff" stroke-width="300"/>
  <rect width="2964" height="2100" fill="#3c3b6e"/>
  <g fill="#fff">
    <g id="s18">
      <g id="s9">
        <g id="s5">
          <g id="s4">
            <path id="s" d="M247,90 317.534230,307.082039 132.873218,172.917961H361.126782L176.465770,307.082039z"/>
            <path d="M247,90 317.534230,307.082039 132.873218,172.917961H361.126782L176.465770,307.082039z" transform="matrix(1, 0, 0, 1, 0, 420)"/>
            <path d="M247,90 317.534230,307.082039 132.873218,172.917961H361.126782L176.465770,307.082039z" transform="matrix(1, 0, 0, 1, 0, 840)"/>
            <path d="M247,90 317.534230,307.082039 132.873218,172.917961H361.126782L176.465770,307.082039z" transform="matrix(1, 0, 0, 1, 0, 1260)"/>
          </g>
          <path d="M247,90 317.534230,307.082039 132.873218,172.917961H361.126782L176.465770,307.082039z" transform="matrix(1, 0, 0, 1, 0, 1680)"/>
        </g>
        <g transform="matrix(1, 0, 0, 1, 247, 210)">
          <path d="M247,90 317.534230,307.082039 132.873218,172.917961H361.126782L176.465770,307.082039z"/>
          <path d="M247,90 317.534230,307.082039 132.873218,172.917961H361.126782L176.465770,307.082039z" transform="matrix(1, 0, 0, 1, 0, 420)"/>
          <path d="M247,90 317.534230,307.082039 132.873218,172.917961H361.126782L176.465770,307.082039z" transform="matrix(1, 0, 0, 1, 0, 840)"/>
          <path d="M247,90 317.534230,307.082039 132.873218,172.917961H361.126782L176.465770,307.082039z" transform="matrix(1, 0, 0, 1, 0, 1260)"/>
        </g>
      </g>
      <g transform="matrix(1, 0, 0, 1, 494, 0)">
        <g>
          <g>
            <path d="M247,90 317.534230,307.082039 132.873218,172.917961H361.126782L176.465770,307.082039z"/>
            <path d="M247,90 317.534230,307.082039 132.873218,172.917961H361.126782L176.465770,307.082039z" transform="matrix(1, 0, 0, 1, 0, 420)"/>
            <path d="M247,90 317.534230,307.082039 132.873218,172.917961H361.126782L176.465770,307.082039z" transform="matrix(1, 0, 0, 1, 0, 840)"/>
            <path d="M247,90 317.534230,307.082039 132.873218,172.917961H361.126782L176.465770,307.082039z" transform="matrix(1, 0, 0, 1, 0, 1260)"/>
          </g>
          <path d="M247,90 317.534230,307.082039 132.873218,172.917961H361.126782L176.465770,307.082039z" transform="matrix(1, 0, 0, 1, 0, 1680)"/>
        </g>
        <g transform="matrix(1, 0, 0, 1, 247, 210)">
          <path d="M247,90 317.534230,307.082039 132.873218,172.917961H361.126782L176.465770,307.082039z"/>
          <path d="M247,90 317.534230,307.082039 132.873218,172.917961H361.126782L176.465770,307.082039z" transform="matrix(1, 0, 0, 1, 0, 420)"/>
          <path d="M247,90 317.534230,307.082039 132.873218,172.917961H361.126782L176.465770,307.082039z" transform="matrix(1, 0, 0, 1, 0, 840)"/>
          <path d="M247,90 317.534230,307.082039 132.873218,172.917961H361.126782L176.465770,307.082039z" transform="matrix(1, 0, 0, 1, 0, 1260)"/>
        </g>
      </g>
    </g>
    <g transform="matrix(1, 0, 0, 1, 988, 0)">
      <g>
        <g>
          <g>
            <path d="M247,90 317.534230,307.082039 132.873218,172.917961H361.126782L176.465770,307.082039z"/>
            <path d="M247,90 317.534230,307.082039 132.873218,172.917961H361.126782L176.465770,307.082039z" transform="matrix(1, 0, 0, 1, 0, 420)"/>
            <path d="M247,90 317.534230,307.082039 132.873218,172.917961H361.126782L176.465770,307.082039z" transform="matrix(1, 0, 0, 1, 0, 840)"/>
            <path d="M247,90 317.534230,307.082039 132.873218,172.917961H361.126782L176.465770,307.082039z" transform="matrix(1, 0, 0, 1, 0, 1260)"/>
          </g>
          <path d="M247,90 317.534230,307.082039 132.873218,172.917961H361.126782L176.465770,307.082039z" transform="matrix(1, 0, 0, 1, 0, 1680)"/>
        </g>
        <g transform="matrix(1, 0, 0, 1, 247, 210)">
          <path d="M247,90 317.534230,307.082039 132.873218,172.917961H361.126782L176.465770,307.082039z"/>
          <path d="M247,90 317.534230,307.082039 132.873218,172.917961H361.126782L176.465770,307.082039z" transform="matrix(1, 0, 0, 1, 0, 420)"/>
          <path d="M247,90 317.534230,307.082039 132.873218,172.917961H361.126782L176.465770,307.082039z" transform="matrix(1, 0, 0, 1, 0, 840)"/>
          <path d="M247,90 317.534230,307.082039 132.873218,172.917961H361.126782L176.465770,307.082039z" transform="matrix(1, 0, 0, 1, 0, 1260)"/>
        </g>
      </g>
      <g transform="matrix(1, 0, 0, 1, 494, 0)">
        <g>
          <g>
            <path d="M247,90 317.534230,307.082039 132.873218,172.917961H361.126782L176.465770,307.082039z"/>
            <path d="M247,90 317.534230,307.082039 132.873218,172.917961H361.126782L176.465770,307.082039z" transform="matrix(1, 0, 0, 1, 0, 420)"/>
            <path d="M247,90 317.534230,307.082039 132.873218,172.917961H361.126782L176.465770,307.082039z" transform="matrix(1, 0, 0, 1, 0, 840)"/>
            <path d="M247,90 317.534230,307.082039 132.873218,172.917961H361.126782L176.465770,307.082039z" transform="matrix(1, 0, 0, 1, 0, 1260)"/>
          </g>
          <path d="M247,90 317.534230,307.082039 132.873218,172.917961H361.126782L176.465770,307.082039z" transform="matrix(1, 0, 0, 1, 0, 1680)"/>
        </g>
        <g transform="matrix(1, 0, 0, 1, 247, 210)">
          <path d="M247,90 317.534230,307.082039 132.873218,172.917961H361.126782L176.465770,307.082039z"/>
          <path d="M247,90 317.534230,307.082039 132.873218,172.917961H361.126782L176.465770,307.082039z" transform="matrix(1, 0, 0, 1, 0, 420)"/>
          <path d="M247,90 317.534230,307.082039 132.873218,172.917961H361.126782L176.465770,307.082039z" transform="matrix(1, 0, 0, 1, 0, 840)"/>
          <path d="M247,90 317.534230,307.082039 132.873218,172.917961H361.126782L176.465770,307.082039z" transform="matrix(1, 0, 0, 1, 0, 1260)"/>
        </g>
      </g>
    </g>
    <g transform="matrix(1, 0, 0, 1, 1976, 0)">
      <g>
        <g>
          <path d="M247,90 317.534230,307.082039 132.873218,172.917961H361.126782L176.465770,307.082039z"/>
          <path d="M247,90 317.534230,307.082039 132.873218,172.917961H361.126782L176.465770,307.082039z" transform="matrix(1, 0, 0, 1, 0, 420)"/>
          <path d="M247,90 317.534230,307.082039 132.873218,172.917961H361.126782L176.465770,307.082039z" transform="matrix(1, 0, 0, 1, 0, 840)"/>
          <path d="M247,90 317.534230,307.082039 132.873218,172.917961H361.126782L176.465770,307.082039z" transform="matrix(1, 0, 0, 1, 0, 1260)"/>
        </g>
        <path d="M247,90 317.534230,307.082039 132.873218,172.917961H361.126782L176.465770,307.082039z" transform="matrix(1, 0, 0, 1, 0, 1680)"/>
      </g>
      <g transform="matrix(1, 0, 0, 1, 247, 210)">
        <path d="M247,90 317.534230,307.082039 132.873218,172.917961H361.126782L176.465770,307.082039z"/>
        <path d="M247,90 317.534230,307.082039 132.873218,172.917961H361.126782L176.465770,307.082039z" transform="matrix(1, 0, 0, 1, 0, 420)"/>
        <path d="M247,90 317.534230,307.082039 132.873218,172.917961H361.126782L176.465770,307.082039z" transform="matrix(1, 0, 0, 1, 0, 840)"/>
        <path d="M247,90 317.534230,307.082039 132.873218,172.917961H361.126782L176.465770,307.082039z" transform="matrix(1, 0, 0, 1, 0, 1260)"/>
      </g>
    </g>
    <g transform="matrix(1, 0, 0, 1, 2470, 0)">
      <g>
        <path d="M247,90 317.534230,307.082039 132.873218,172.917961H361.126782L176.465770,307.082039z"/>
        <path d="M247,90 317.534230,307.082039 132.873218,172.917961H361.126782L176.465770,307.082039z" transform="matrix(1, 0, 0, 1, 0, 420)"/>
        <path d="M247,90 317.534230,307.082039 132.873218,172.917961H361.126782L176.465770,307.082039z" transform="matrix(1, 0, 0, 1, 0, 840)"/>
        <path d="M247,90 317.534230,307.082039 132.873218,172.917961H361.126782L176.465770,307.082039z" transform="matrix(1, 0, 0, 1, 0, 1260)"/>
      </g>
      <path d="M247,90 317.534230,307.082039 132.873218,172.917961H361.126782L176.465770,307.082039z" transform="matrix(1, 0, 0, 1, 0, 1680)"/>
    </g>
  </g>
</svg>